<svg width="29" height="21" viewBox="0 0 29 21" fill="none" xmlns="http://www.w3.org/2000/svg">
<path d="M17.0493 8.51837H13.1065C13.0345 8.00825 12.8874 7.55515 12.6654 7.15907C12.4433 6.75698 12.1583 6.4149 11.8102 6.13284C11.4621 5.85078 11.06 5.63473 10.6039 5.4847C10.1538 5.33467 9.66471 5.25965 9.1366 5.25965C8.18239 5.25965 7.3512 5.4967 6.64305 5.97081C5.93489 6.43891 5.38577 7.12306 4.99569 8.02326C4.6056 8.91745 4.41056 10.0037 4.41056 11.282C4.41056 12.5963 4.6056 13.7005 4.99569 14.5947C5.39177 15.4889 5.94389 16.164 6.65205 16.6201C7.36021 17.0762 8.17939 17.3043 9.10959 17.3043C9.6317 17.3043 10.1148 17.2353 10.5589 17.0973C11.009 16.9592 11.4081 16.7582 11.7562 16.4941C12.1042 16.2241 12.3923 15.897 12.6204 15.5129C12.8544 15.1288 13.0164 14.6907 13.1065 14.1986L17.0493 14.2166C16.9473 15.0628 16.6923 15.879 16.2842 16.6652C15.8821 17.4453 15.339 18.1445 14.6548 18.7626C13.9767 19.3748 13.1665 19.8609 12.2243 20.2209C11.2881 20.575 10.2288 20.7521 9.04658 20.7521C7.40221 20.7521 5.93189 20.38 4.63561 19.6358C3.34532 18.8916 2.3251 17.8144 1.57493 16.4041C0.830769 14.9938 0.458688 13.2864 0.458688 11.282C0.458688 9.27153 0.836771 7.56116 1.59294 6.15085C2.3491 4.74053 3.37533 3.6663 4.67161 2.92814C5.9679 2.18397 7.42622 1.81189 9.04658 1.81189C10.1148 1.81189 11.105 1.96192 12.0172 2.26199C12.9354 2.56206 13.7486 3.00015 14.4568 3.57628C15.1649 4.1464 15.741 4.84556 16.1851 5.67374C16.6352 6.50192 16.9233 7.45013 17.0493 8.51837ZM23.8053 11.426C22.8991 11.426 22.0919 11.285 21.3838 11.0029C20.6816 10.7208 20.1235 10.3308 19.7094 9.83265C19.2953 9.32854 19.0793 8.74341 19.0613 8.07727H21.8879C21.9179 8.41334 22.1129 8.6744 22.473 8.86044C22.8391 9.04648 23.2832 9.1395 23.8053 9.1395C24.3454 9.1395 24.8045 9.03448 25.1826 8.82443C25.5607 8.60839 25.7497 8.30832 25.7497 7.92424C25.7497 7.56416 25.5577 7.26709 25.1736 7.03304C24.7955 6.79299 24.2704 6.67296 23.5983 6.67296H22.329V4.62951H23.5983C24.1564 4.62951 24.6065 4.51849 24.9486 4.29644C25.2906 4.06839 25.4617 3.77732 25.4617 3.42325C25.4617 3.07517 25.3117 2.79611 25.0116 2.58606C24.7175 2.37001 24.3274 2.26199 23.8413 2.26199C23.3312 2.26199 22.8961 2.36401 22.536 2.56806C22.176 2.7721 21.9869 3.04216 21.9689 3.37823H19.3133C19.3253 2.72409 19.5324 2.15097 19.9345 1.65886C20.3426 1.16075 20.8887 0.773662 21.5728 0.497602C22.257 0.221541 23.0221 0.0835109 23.8683 0.0835109C24.7265 0.0835109 25.4767 0.224542 26.1188 0.506603C26.761 0.788666 27.2591 1.16975 27.6132 1.64985C27.9732 2.12996 28.1533 2.66408 28.1533 3.25221C28.1533 3.90035 27.9282 4.41946 27.4781 4.80955C27.034 5.19964 26.4969 5.43669 25.8668 5.52071V5.61073C26.737 5.69474 27.4151 5.9588 27.9012 6.4029C28.3873 6.847 28.6304 7.41712 28.6304 8.11328C28.6304 8.76142 28.4203 9.33454 28.0002 9.83265C27.5862 10.3308 27.016 10.7208 26.2899 11.0029C25.5637 11.285 24.7355 11.426 23.8053 11.426Z" fill="black"/>
</svg>
